<svg xmlns="http://www.w3.org/2000/svg" version="1.1" xmlns:xlink="http://www.w3.org/1999/xlink" xmlns:svgjs="http://svgjs.com/svgjs" width="512" height="512" x="0" y="0" viewBox="0 0 512.001 512.001" style="enable-background:new 0 0 512 512" xml:space="preserve" class=""><g>
<path xmlns="http://www.w3.org/2000/svg" style="" d="M125.02,122.345C90.068,85.47,47.001,94.083,15.293,101.372  c-31.708,7.288,39.46,104.822,102.314,67.177l18.368-7.829L125.02,122.345z" fill="#424242" data-original="#424242" class=""></path>
<path xmlns="http://www.w3.org/2000/svg" style="" d="M123.68,140.777c-15.045-13.131-32.125-18.871-53.194-17.986c-5.021,0.211-10.075,0.781-15.123,1.601  c-5.694,0.925-7.994,7.848-4.008,12.018c2.267,2.371,4.808,4.802,7.643,7.235c15.166,13.018,32.018,20.144,46.232,19.549h0.003  c7.629-0.32,14.65-2.76,21.465-7.459l1.416-0.977L123.68,140.777z" fill="#ef999a" data-original="#ef999a" class=""></path>
<path xmlns="http://www.w3.org/2000/svg" style="" d="M386.983,122.345c34.953-36.875,78.019-28.262,109.727-20.974s-39.46,104.822-102.314,67.177  l-18.368-7.829L386.983,122.345z" fill="#424242" data-original="#424242" class=""></path>
<path xmlns="http://www.w3.org/2000/svg" style="" d="M388.323,140.777c15.045-13.131,32.125-18.871,53.194-17.986c5.021,0.211,10.075,0.781,15.123,1.601  c5.694,0.925,7.994,7.848,4.008,12.018c-2.267,2.371-4.808,4.802-7.643,7.235c-15.166,13.018-32.018,20.144-46.232,19.549h-0.003  c-7.629-0.32-14.65-2.76-21.465-7.459l-1.416-0.977L388.323,140.777z" fill="#ef999a" data-original="#ef999a" class=""></path>
<path xmlns="http://www.w3.org/2000/svg" style="" d="M371.367,324.663c-0.006-0.011-0.013-0.022-0.019-0.034l0.024-0.02L340.987,65.587  c-21.125-12.761-49.04-20.263-84.985-20.263c-35.393,0-62.995,7.279-84,19.686l-0.985,0.577l0.802,0.936l-31.182,258.138h0.001  v0.001c0.778,8.878,1.326,17.24,1.875,25.128h226.975c0.001,0,0.002,0.001,0.004,0.002l0.018-0.27  c0.545-7.823,1.09-16.115,1.863-24.913C371.371,324.627,371.369,324.645,371.367,324.663z" fill="#e6e1d7" data-original="#e6e1d7" class=""></path>
<path xmlns="http://www.w3.org/2000/svg" style="opacity:0.1;enable-background:new    ;" d="M135.974,160.718l-10.953-38.374c-7.968-8.406-16.358-14.442-24.94-18.676  c-4.643,10.679-8.19,22.186-10.579,34.441c-2.421,12.419-3.636,25.491-3.667,39.022c10.476,0.223,21.241-2.275,31.773-8.583  L135.974,160.718z" fill="#000000" data-original="#000000" class=""></path>
<path xmlns="http://www.w3.org/2000/svg" style="" d="M126.552,247.302c8.678,29.288,12.118,54.943,14.084,77.36  c25.436-46.757,69.439-49.052,73.068-97.262c4.752-63.129-53.625-67.202-28.51-145.264l-14.177-16.55  C111.97,101.254,106.034,178.053,126.552,247.302z" fill="#424242" data-original="#424242" class=""></path>
<path xmlns="http://www.w3.org/2000/svg" style="" d="M339.31,430.128c5.589,38.217-12.012,55.208-83.31,55.208h0.004c-71.298,0-88.899-16.99-83.31-55.208  H339.31z" fill="#d98b8c" data-original="#d98b8c" class=""></path>
<path xmlns="http://www.w3.org/2000/svg" style="" d="M339.31,430.127c25.093-18.204,27.663-44.203,30.182-80.335  C340.345,335.312,300.253,326.37,256,326.37c-44.251,0-84.34,8.941-113.488,23.42c2.519,36.133,5.089,62.133,30.182,80.337  c33.953,19.154,83.307,18.283,83.307,18.283S305.356,449.28,339.31,430.127z" fill="#ef999a" data-original="#ef999a" class=""></path>
<path xmlns="http://www.w3.org/2000/svg" style="opacity:0.1;enable-background:new    ;" d="M422.502,138.11c-2.389-12.255-5.936-23.762-10.579-34.441  c-8.581,4.233-16.971,10.269-24.94,18.676l-10.953,38.374l18.368,7.83c10.532,6.308,21.297,8.806,31.773,8.583  C426.138,163.6,424.923,150.529,422.502,138.11z" fill="#000000" data-original="#000000" class=""></path>
<path xmlns="http://www.w3.org/2000/svg" style="" d="M385.451,247.302c-8.678,29.288-12.118,54.943-14.083,77.36  c-25.436-46.757-69.439-49.052-73.068-97.262c-4.752-63.129,53.625-67.202,28.51-145.264l14.177-16.55  C400.034,101.254,405.97,178.053,385.451,247.302z" fill="#424242" data-original="#424242" class=""></path>
<path xmlns="http://www.w3.org/2000/svg" style="" d="M205.564,86.175c-3.912,14.475-21.573,20.552-33.639,11.649c-13-9.592-16.228-29.095-15.362-44.175  c0.529-9.217,5.185-30.497,18.525-26.482c16.609,4.999,17.021,31.999,26.717,43.815C206.242,76.391,206.797,81.614,205.564,86.175z" fill="#ffcc80" data-original="#ffcc80"></path>
<path xmlns="http://www.w3.org/2000/svg" style="opacity:0.1;enable-background:new    ;" d="M181.926,77.824c-13-9.592-16.228-29.095-15.362-44.175  c0.092-1.6,0.312-3.567,0.676-5.698c-7.402,4.326-10.268,18.593-10.676,25.699c-0.866,15.08,2.362,34.584,15.362,44.175  c12.066,8.902,29.726,2.826,33.638-11.649c0.616-2.278,0.785-4.72,0.248-7.269C198.684,83.104,189.271,83.243,181.926,77.824z" fill="#000000" data-original="#000000" class=""></path>
<path xmlns="http://www.w3.org/2000/svg" style="" d="M306.439,86.175c3.912,14.475,21.573,20.552,33.639,11.649c13-9.592,16.228-29.095,15.362-44.175  c-0.529-9.217-5.185-30.497-18.525-26.482c-16.609,4.999-17.021,31.999-26.717,43.815C305.761,76.391,305.207,81.614,306.439,86.175  z" fill="#ffcc80" data-original="#ffcc80"></path>
<path xmlns="http://www.w3.org/2000/svg" style="opacity:0.1;enable-background:new    ;" d="M330.077,77.824c13-9.592,16.228-29.095,15.362-44.175  c-0.092-1.6-0.312-3.567-0.676-5.698c7.402,4.326,10.268,18.593,10.676,25.699c0.866,15.08-2.362,34.584-15.362,44.175  c-12.066,8.902-29.726,2.826-33.638-11.649c-0.616-2.278-0.785-4.72-0.248-7.269C313.318,83.104,322.733,83.243,330.077,77.824z" fill="#000000" data-original="#000000" class=""></path>
<path xmlns="http://www.w3.org/2000/svg" d="M177.225,230.299c1.925-1.107,3.33-2.747,3.561-5.099l0.003-0.033c1.201-11.667-7.032-22.074-18.389-23.242  c-4.937-0.508-13.946,0.681-14.599,6.997l-0.003,0.033c-1.201,11.667,7.032,22.074,18.389,23.242  C169.265,232.513,173.984,232.162,177.225,230.299z" fill="#000000" data-original="#000000" class=""></path>
<ellipse xmlns="http://www.w3.org/2000/svg" transform="matrix(-0.9616 0.2746 -0.2746 -0.9616 495.6428 692.8333)" cx="199.328" cy="381.108" rx="19.101" ry="28.082" fill="#000000" data-original="#000000" class=""></ellipse>
<path xmlns="http://www.w3.org/2000/svg" d="M364.201,208.922c-0.228-2.179-1.638-4.054-3.605-5.021c-3.312-1.629-7.082-2.377-10.994-1.975  c-11.356,1.168-19.589,11.574-18.389,23.242l0.003,0.033c0.228,2.179,1.638,4.055,3.605,5.021c3.312,1.629,7.082,2.377,10.994,1.975  c11.356-1.168,19.589-11.574,18.389-23.242L364.201,208.922z" fill="#000000" data-original="#000000" class=""></path>
<ellipse xmlns="http://www.w3.org/2000/svg" transform="matrix(-0.9616 -0.2746 0.2746 -0.9616 508.7626 833.3731)" cx="312.711" cy="381.077" rx="19.101" ry="28.082" fill="#000000" data-original="#000000" class=""></ellipse>
<ellipse xmlns="http://www.w3.org/2000/svg" transform="matrix(-0.9616 0.2746 -0.2746 -0.9616 495.6428 692.8333)" style="" cx="199.328" cy="381.108" rx="19.101" ry="28.082" fill="#ce5b61" data-original="#ce5b61" class=""></ellipse>
<path xmlns="http://www.w3.org/2000/svg" d="M203.396,416.101c-5.612,0-11.374-2.219-16.434-6.438c-6.069-5.063-10.771-12.61-13.24-21.254  c-2.469-8.643-2.462-17.535,0.019-25.041c2.775-8.396,8.531-14.401,15.792-16.474c7.262-2.074,15.319-0.014,22.111,5.649  c6.069,5.062,10.771,12.61,13.24,21.254c2.469,8.643,2.462,17.536-0.019,25.041c-2.775,8.396-8.531,14.401-15.792,16.474  C207.221,415.841,205.317,416.101,203.396,416.101z M195.275,361.095c-0.538,0-1.082,0.068-1.624,0.223  c-3.3,0.943-4.968,4.64-5.669,6.759c-1.523,4.608-1.464,10.517,0.163,16.212c1.626,5.696,4.696,10.745,8.424,13.854  c1.714,1.43,5.082,3.688,8.384,2.746c3.3-0.943,4.968-4.64,5.669-6.759c1.523-4.608,1.464-10.518-0.163-16.212  c-1.626-5.695-4.696-10.745-8.424-13.853C200.603,362.869,198.014,361.095,195.275,361.095z" fill="#000000" data-original="#000000" class=""></path>
<ellipse xmlns="http://www.w3.org/2000/svg" transform="matrix(-0.9616 -0.2746 0.2746 -0.9616 508.7626 833.3731)" style="" cx="312.711" cy="381.077" rx="19.101" ry="28.082" fill="#ce5b61" data-original="#ce5b61" class=""></ellipse>
<path xmlns="http://www.w3.org/2000/svg" d="M308.711,416.123c-1.931,0-3.866-0.263-5.781-0.811c-14.344-4.096-21.29-22.333-15.812-41.515  c5.479-19.182,21.004-31,35.353-26.903l0,0c14.344,4.097,21.289,22.333,15.811,41.515  C333.533,405.031,321.24,416.123,308.711,416.123z M316.751,361.102c-5.213,0-12.199,6.278-15.209,16.815  c-3.33,11.659,0.229,21.465,5.507,22.973c5.273,1.507,13.478-4.938,16.808-16.599c3.33-11.659-0.229-21.465-5.506-22.972  C317.842,361.173,317.307,361.102,316.751,361.102z" fill="#000000" data-original="#000000" class=""></path>
<path xmlns="http://www.w3.org/2000/svg" d="M28.082,159.338c10.497,9.453,32.123,25.314,59.021,25.317c7.305,0,14.429-1.201,21.295-3.569  c0.309,18.687,3.052,38.425,8.222,58.467c1.017,3.941,5.167,6.412,9.136,5.389c4.326-1.115,6.278-5.674,5.234-9.763  c-5.858-22.94-8.367-45.354-7.45-65.948c0.663-14.868,3.136-29.741,8.211-43.765c5.281-14.621,12.991-27.188,23.086-37.559  c0.055,0.119,0.118,0.23,0.174,0.348c3.587,7.534,9.172,14.434,16.737,18.229c0.097,0.049,0.189,0.109,0.287,0.156  c-3.433,30.057,7.286,47.715,17.674,64.827c9.463,15.586,18.402,30.31,16.513,55.39c-1.829,24.298-15.119,35.291-31.947,49.208  c-9.195,7.605-19.233,15.906-28.383,27.269c-1.122-8.696-2.578-17.823-4.526-27.432c-0.69-3.419-1.431-6.828-2.218-10.226  c-0.939-4.034-4.972-6.544-9.006-5.604c-4.035,0.938-6.544,4.97-5.605,9.004c5.94,25.522,8.428,51.478,10.23,77.565  c2.537,36.727,4.58,66.063,29.961,86.815c-1.748,16.709,1.217,28.939,9.238,38.219c12.659,14.646,37.959,21.179,82.035,21.179  c44.071,0,69.371-6.532,82.031-21.179c8.021-9.28,10.987-21.51,9.238-38.22c24.52-20.049,27.257-48.107,29.699-83.101  c0.003-0.047,0.007-0.094,0.01-0.142c0.663-12.246,1.684-24.519,3.032-36.707c4.953-44.776,22.975-87.089,23.7-132.382  c6.832,2.343,13.922,3.531,21.198,3.531c26.888,0,48.512-15.856,59.009-25.31c15.47-13.931,26.425-31.379,27.908-44.45  c1.209-10.656-3.94-18.633-13.437-20.816c-37.742-8.676-77.303-11.388-108.658,15.345c-6.832-14.574-16.118-27.286-27.792-37.671  c1.315-7.998,1.188-15.017,0.987-18.519c-0.286-4.977-1.576-12.619-4.337-19.146c-5.486-12.968-13.928-14.904-18.472-14.904  c-1.759,0-3.564,0.275-5.365,0.816c-11.997,3.611-17.472,14.903-21.393,25.458c-16.999-5.058-36.253-7.619-57.36-7.619  c-21.107,0-40.361,2.561-57.36,7.619c-3.92-10.553-9.396-21.847-21.394-25.458c-19.114-5.753-27.354,18.961-28.174,33.234  c-0.201,3.5-0.327,10.518,0.987,18.515c-11.737,10.407-21.045,22.984-27.879,37.599C104.902,94.651,84.538,87.47,60.249,87.47  c-16.514,0-32.095,3.264-46.638,6.606c-9.496,2.183-14.644,10.157-13.437,20.81C1.658,127.96,12.612,145.406,28.082,159.338z   M111.407,143.363c-0.696,3.701-1.263,7.431-1.708,11.168c-0.026,0.213-0.056,0.422-0.081,0.635c-1.534,0.301-3.093,0.483-4.7,0.551  c-0.021,0.001-0.042,0.002-0.063,0.003c-12.317,0.494-27.342-6.047-40.973-17.748c-2.332-2.002-4.569-4.105-6.662-6.265  c4.848-0.766,9.296-1.226,13.579-1.406c16.114-0.675,29.211,2.752,41.046,10.813C111.695,141.863,111.549,142.613,111.407,143.363z   M326.686,461.866c-9.428,10.907-31.889,15.987-70.685,15.987s-61.257-5.081-70.685-15.987c-4.146-4.796-6.139-11.316-6.076-20.123  c23.747,10.309,50.638,14.148,76.411,14.19c24.749,0.04,50.373-3.513,73.445-12.677c1.228-0.488,2.455-0.988,3.667-1.514  C332.826,450.549,330.832,457.069,326.686,461.866z M335.257,423.817c-2.929,1.608-15.646,8.146-36.216,12.66  c-14.029,2.909-28.563,4.627-42.907,4.452c-14.495-0.178-28.951-1.503-43.162-4.449c-20.574-4.514-33.295-11.053-36.226-12.662  c-20.913-15.39-24.043-37.315-26.393-69.437c28.822-13.235,66.091-20.493,105.646-20.493s76.824,7.257,105.647,20.493  C359.298,386.502,356.169,408.426,335.257,423.817z M366.104,303.327c-9.149-11.359-19.186-19.66-28.379-27.264  c-16.827-13.917-30.118-24.91-31.947-49.208c-1.888-25.081,7.05-39.803,16.513-55.39c10.388-17.11,21.108-34.77,17.673-64.827  c0.097-0.047,0.187-0.106,0.283-0.154c7.58-3.776,13.194-10.728,16.761-18.272c0.05-0.105,0.105-0.204,0.155-0.31  c9.929,10.195,17.555,22.488,22.824,36.772c0.02,0.059,0.03,0.12,0.051,0.178c5.258,14.301,7.788,29.493,8.44,44.683  c1.458,33.98-8.401,64.586-15.87,97.187c-0.035,0.152-0.07,0.303-0.104,0.455C369.503,280.337,367.506,292.466,366.104,303.327z   M407.144,155.72c-0.021-0.001-0.041-0.002-0.062-0.003c-1.592-0.066-3.139-0.248-4.66-0.544c-0.288-2.406-0.635-4.778-1.017-7.129  c-0.376-2.315-0.783-4.629-1.25-6.928c11.836-8.061,24.939-11.489,41.046-10.813c4.281,0.18,8.729,0.64,13.579,1.406  c-2.087,2.153-4.325,4.259-6.661,6.265C434.488,149.673,419.507,156.215,407.144,155.72z M451.751,102.474  c14.944,0,29.574,3.075,43.278,6.225c1.205,0.277,2.343,0.539,1.893,4.506c-0.867,7.642-8.446,21.853-23.041,34.994  c-8.898,8.013-27.095,21.458-48.974,21.456c-1.582,0-3.151-0.089-4.711-0.235c12.483-2.727,25.517-9.612,37.695-20.066  c2.876-2.469,5.628-5.075,8.178-7.743c8.007-8.375,3.203-22.748-8.227-24.605c-5.696-0.925-10.935-1.479-16.011-1.691  c-17.287-0.726-32.265,2.726-45.619,10.56c-0.172-0.545-0.33-1.1-0.507-1.641C411.041,109.6,429.422,102.474,451.751,102.474z   M339.077,34.367c0.397-0.12,0.748-0.18,1.042-0.18c3.188,0,7.287,10.42,7.833,19.911c0.726,12.654-1.189,30.74-13.094,38.229  c-3.61,2.271-8.225,2.759-12.249,1.355c-7.192-2.506-11.989-11.374-6.612-17.923c0.015-0.018,0.027-0.039,0.042-0.057  c4.788-5.858,7.179-13.148,9.65-20.182C329.15,45.673,332.417,36.372,339.077,34.367z M256.002,52.841  c19.272,0,36.775,2.259,52.155,6.723c-0.022,0.052-0.044,0.101-0.067,0.152c-0.987,2.29-2.099,4.586-3.69,6.526  c-5.186,6.321-6.331,12.479-5.97,17.416c0.989,13.529,13.067,24.511,26.311,25.715c0.143,0.013,0.286,0.025,0.429,0.036  c2.487,24.29-5.993,38.282-15.7,54.271c-9.796,16.134-20.899,34.422-18.65,64.301c2.308,30.663,19.327,44.738,37.345,59.641  c12.518,10.353,25.439,21.069,35.536,38.745c-0.351,4.165-0.658,8.204-0.937,12.115c-29.966-12.68-67.387-19.596-106.765-19.596  s-76.798,6.915-106.764,19.596c-0.281-3.945-0.585-7.981-0.932-12.117c10.097-17.675,23.018-28.391,35.535-38.743  c18.018-14.902,35.037-28.978,37.345-59.641c2.249-29.878-8.854-48.166-18.65-64.301c-9.707-15.989-18.187-29.982-15.7-54.271  c0.145-0.011,0.289-0.024,0.433-0.037c13.478-1.229,26.108-12.694,26.365-26.973c0.085-4.706-1.273-10.363-6.028-16.157  c-0.364-0.445-0.7-0.913-1.018-1.391c-0.987-1.496-1.886-3.298-2.738-5.286C219.226,55.101,236.729,52.841,256.002,52.841z   M164.051,54.097c0.545-9.485,4.64-19.9,7.828-19.911c8.485-0.027,12.36,15.434,14.434,21.333c2.435,6.927,4.943,14.416,9.65,20.182  c0.015,0.018,0.028,0.039,0.043,0.057c6.238,7.6,0.057,16.61-8.475,18.199c-8.587,1.599-15.571-5.005-19.012-12.225  C164.497,73.296,163.521,63.329,164.051,54.097z M16.973,108.699c13.704-3.15,28.334-6.225,43.278-6.225  c22.33,0,40.71,7.126,56.048,21.761c0.176,0.182-0.659,1.552-0.511,1.638c-13.352-7.832-28.33-11.283-45.615-10.558  c-5.076,0.213-10.313,0.766-16.011,1.691c-11.433,1.857-16.228,16.234-8.227,24.606c2.555,2.672,5.307,5.277,8.18,7.743  c12.178,10.453,25.213,17.338,37.697,20.066c-1.559,0.146-3.127,0.235-4.714,0.235c-21.88-0.003-40.076-13.448-48.975-21.463  C23.527,135.049,15.948,120.84,15.081,113.2C14.631,109.238,15.769,108.976,16.973,108.699z" fill="#000000" data-original="#000000" class=""></path>
<g xmlns="http://www.w3.org/2000/svg">
</g>
<g xmlns="http://www.w3.org/2000/svg">
</g>
<g xmlns="http://www.w3.org/2000/svg">
</g>
<g xmlns="http://www.w3.org/2000/svg">
</g>
<g xmlns="http://www.w3.org/2000/svg">
</g>
<g xmlns="http://www.w3.org/2000/svg">
</g>
<g xmlns="http://www.w3.org/2000/svg">
</g>
<g xmlns="http://www.w3.org/2000/svg">
</g>
<g xmlns="http://www.w3.org/2000/svg">
</g>
<g xmlns="http://www.w3.org/2000/svg">
</g>
<g xmlns="http://www.w3.org/2000/svg">
</g>
<g xmlns="http://www.w3.org/2000/svg">
</g>
<g xmlns="http://www.w3.org/2000/svg">
</g>
<g xmlns="http://www.w3.org/2000/svg">
</g>
<g xmlns="http://www.w3.org/2000/svg">
</g>
</g></svg>